# xmcd CD database file
#
# Track frame offsets:
#	150
#	27338
#	47178
#	74263
#	93085
#	126196
#
# Disc length: 2124 seconds
#
# Revision: 0
# Processed by: cddbd v1.5.2PL0 Copyright (c) Steve Scherf et al.
# Submitted via: CDex 1.51
#
DISCID=4b084a06
DTITLE=SchäferProske - DUO
DYEAR=2004
DGENRE=Jazz
TTITLE0=Sort Of Moony
TTITLE1=Spring Matress Time
TTITLE2=Oyun Havasi
TTITLE3=Untitled
TTITLE4=Beautiful Everyday Life
TTITLE5=Nihavend
EXTD=YEAR: 2004
EXTT0=
EXTT1=
EXTT2=
EXTT3=
EXTT4=
EXTT5=
PLAYORDER=
